<svg xmlns="http://www.w3.org/2000/svg" viewBox="0 0 64 64">
  <rect width="64" height="64" rx="10" fill="#1c1208"/>
  <rect x="10" y="10" width="44" height="44" rx="3" fill="#8a5a2c"/>
  <rect x="13" y="13" width="38" height="38" fill="#1c2434"/>
  <rect x="15" y="16" width="6" height="14" fill="#c47b4a"/>
  <rect x="22" y="16" width="5" height="14" fill="#8b6b8e"/>
  <rect x="28" y="16" width="6" height="14" fill="#d4a657"/>
  <rect x="35" y="16" width="5" height="14" fill="#5e7c8b"/>
  <rect x="41" y="16" width="8" height="14" fill="#a85a45"/>
  <rect x="13" y="30" width="38" height="2" fill="#6b3e1f"/>
  <rect x="15" y="34" width="5" height="14" fill="#5e7c8b"/>
  <rect x="21" y="34" width="6" height="14" fill="#7a5a8c"/>
  <rect x="28" y="34" width="5" height="14" fill="#a85a45"/>
  <rect x="34" y="34" width="6" height="14" fill="#d4a657"/>
  <rect x="41" y="34" width="8" height="14" fill="#5b5b75"/>
  <rect x="13" y="48" width="38" height="3" fill="#6b3e1f"/>
</svg>
